ISO-10303-21;
HEADER;
FILE_DESCRIPTION(('FreeCAD Model'),'2;1');
FILE_NAME('Open CASCADE Shape Model','2026-09-04T14:57:23',(''),(''),
  'Open CASCADE STEP processor 7.8','FreeCAD','Unknown');
FILE_SCHEMA(('AUTOMOTIVE_DESIGN { 1 0 10303 214 1 1 1 1 }'));
ENDSEC;
DATA;
#1 = APPLICATION_PROTOCOL_DEFINITION('international standard',
  'automotive_design',2000,#2);
#2 = APPLICATION_CONTEXT(
  'core data for automotive mechanical design processes');
#3 = SHAPE_DEFINITION_REPRESENTATION(#4,#10);
#4 = PRODUCT_DEFINITION_SHAPE('','',#5);
#5 = PRODUCT_DEFINITION('design','',#6,#9);
#6 = PRODUCT_DEFINITION_FORMATION('','',#7);
#7 = PRODUCT('Body','Body','',(#8));
#8 = PRODUCT_CONTEXT('',#2,'mechanical');
#9 = PRODUCT_DEFINITION_CONTEXT('part definition',#2,'design');
#10 = ADVANCED_BREP_SHAPE_REPRESENTATION('',(#11,#15),#1365);
#11 = AXIS2_PLACEMENT_3D('',#12,#13,#14);
#12 = CARTESIAN_POINT('',(0.,0.,0.));
#13 = DIRECTION('',(0.,0.,1.));
#14 = DIRECTION('',(1.,0.,-0.));
#15 = MANIFOLD_SOLID_BREP('',#16);
#16 = CLOSED_SHELL('',(#17,#127,#158,#183,#208,#232,#256,#281,#306,#323,
    #354,#411,#469,#486,#527,#539,#564,#589,#614,#638,#662,#679,#758,
    #778,#798,#818,#843,#868,#899,#923,#947,#964,#989,#1023,#1057,#1299,
    #1317,#1335,#1347));
#17 = ADVANCED_FACE('',(#18,#88),#122,.F.);
#18 = FACE_BOUND('',#19,.F.);
#19 = EDGE_LOOP('',(#20,#30,#39,#47,#56,#64,#73,#81));
#20 = ORIENTED_EDGE('',*,*,#21,.T.);
#21 = EDGE_CURVE('',#22,#24,#26,.T.);
#22 = VERTEX_POINT('',#23);
#23 = CARTESIAN_POINT('',(-33.6,36.19,16.1));
#24 = VERTEX_POINT('',#25);
#25 = CARTESIAN_POINT('',(-33.6,42.21,16.1));
#26 = LINE('',#27,#28);
#27 = CARTESIAN_POINT('',(-33.6,34.7,16.1));
#28 = VECTOR('',#29,1.);
#29 = DIRECTION('',(0.,1.,0.));
#30 = ORIENTED_EDGE('',*,*,#31,.T.);
#31 = EDGE_CURVE('',#24,#32,#34,.T.);
#32 = VERTEX_POINT('',#33);
#33 = CARTESIAN_POINT('',(-33.6,43.7,14.61));
#34 = CIRCLE('',#35,1.49);
#35 = AXIS2_PLACEMENT_3D('',#36,#37,#38);
#36 = CARTESIAN_POINT('',(-33.6,42.21,14.61));
#37 = DIRECTION('',(-1.,0.,0.));
#38 = DIRECTION('',(0.,0.,1.));
#39 = ORIENTED_EDGE('',*,*,#40,.T.);
#40 = EDGE_CURVE('',#32,#41,#43,.T.);
#41 = VERTEX_POINT('',#42);
#42 = CARTESIAN_POINT('',(-33.6,43.7,14.19));
#43 = LINE('',#44,#45);
#44 = CARTESIAN_POINT('',(-33.6,43.7,16.1));
#45 = VECTOR('',#46,1.);
#46 = DIRECTION('',(0.,0.,-1.));
#47 = ORIENTED_EDGE('',*,*,#48,.F.);
#48 = EDGE_CURVE('',#49,#41,#51,.T.);
#49 = VERTEX_POINT('',#50);
#50 = CARTESIAN_POINT('',(-33.6,42.21,12.7));
#51 = CIRCLE('',#52,1.49);
#52 = AXIS2_PLACEMENT_3D('',#53,#54,#55);
#53 = CARTESIAN_POINT('',(-33.6,42.21,14.19));
#54 = DIRECTION('',(1.,0.,-0.));
#55 = DIRECTION('',(0.,0.,1.));
#56 = ORIENTED_EDGE('',*,*,#57,.T.);
#57 = EDGE_CURVE('',#49,#58,#60,.T.);
#58 = VERTEX_POINT('',#59);
#59 = CARTESIAN_POINT('',(-33.6,36.19,12.7));
#60 = LINE('',#61,#62);
#61 = CARTESIAN_POINT('',(-33.6,43.7,12.7));
#62 = VECTOR('',#63,1.);
#63 = DIRECTION('',(0.,-1.,0.));
#64 = ORIENTED_EDGE('',*,*,#65,.F.);
#65 = EDGE_CURVE('',#66,#58,#68,.T.);
#66 = VERTEX_POINT('',#67);
#67 = CARTESIAN_POINT('',(-33.6,34.7,14.19));
#68 = CIRCLE('',#69,1.49);
#69 = AXIS2_PLACEMENT_3D('',#70,#71,#72);
#70 = CARTESIAN_POINT('',(-33.6,36.19,14.19));
#71 = DIRECTION('',(1.,0.,-0.));
#72 = DIRECTION('',(0.,0.,1.));
#73 = ORIENTED_EDGE('',*,*,#74,.T.);
#74 = EDGE_CURVE('',#66,#75,#77,.T.);
#75 = VERTEX_POINT('',#76);
#76 = CARTESIAN_POINT('',(-33.6,34.7,14.61));
#77 = LINE('',#78,#79);
#78 = CARTESIAN_POINT('',(-33.6,34.7,12.7));
#79 = VECTOR('',#80,1.);
#80 = DIRECTION('',(0.,0.,1.));
#81 = ORIENTED_EDGE('',*,*,#82,.F.);
#82 = EDGE_CURVE('',#22,#75,#83,.T.);
#83 = CIRCLE('',#84,1.49);
#84 = AXIS2_PLACEMENT_3D('',#85,#86,#87);
#85 = CARTESIAN_POINT('',(-33.6,36.19,14.61));
#86 = DIRECTION('',(1.,0.,-0.));
#87 = DIRECTION('',(0.,0.,1.));
#88 = FACE_BOUND('',#89,.F.);
#89 = EDGE_LOOP('',(#90,#100,#108,#116));
#90 = ORIENTED_EDGE('',*,*,#91,.T.);
#91 = EDGE_CURVE('',#92,#94,#96,.T.);
#92 = VERTEX_POINT('',#93);
#93 = CARTESIAN_POINT('',(-33.6,55.6,0.));
#94 = VERTEX_POINT('',#95);
#95 = CARTESIAN_POINT('',(-33.6,55.6,18.));
#96 = LINE('',#97,#98);
#97 = CARTESIAN_POINT('',(-33.6,55.6,0.));
#98 = VECTOR('',#99,1.);
#99 = DIRECTION('',(0.,0.,1.));
#100 = ORIENTED_EDGE('',*,*,#101,.T.);
#101 = EDGE_CURVE('',#94,#102,#104,.T.);
#102 = VERTEX_POINT('',#103);
#103 = CARTESIAN_POINT('',(-33.6,-55.6,18.));
#104 = LINE('',#105,#106);
#105 = CARTESIAN_POINT('',(-33.6,55.6,18.));
#106 = VECTOR('',#107,1.);
#107 = DIRECTION('',(0.,-1.,0.));
#108 = ORIENTED_EDGE('',*,*,#109,.F.);
#109 = EDGE_CURVE('',#110,#102,#112,.T.);
#110 = VERTEX_POINT('',#111);
#111 = CARTESIAN_POINT('',(-33.6,-55.6,0.));
#112 = LINE('',#113,#114);
#113 = CARTESIAN_POINT('',(-33.6,-55.6,0.));
#114 = VECTOR('',#115,1.);
#115 = DIRECTION('',(0.,0.,1.));
#116 = ORIENTED_EDGE('',*,*,#117,.F.);
#117 = EDGE_CURVE('',#92,#110,#118,.T.);
#118 = LINE('',#119,#120);
#119 = CARTESIAN_POINT('',(-33.6,55.6,0.));
#120 = VECTOR('',#121,1.);
#121 = DIRECTION('',(0.,-1.,0.));
#122 = PLANE('',#123);
#123 = AXIS2_PLACEMENT_3D('',#124,#125,#126);
#124 = CARTESIAN_POINT('',(-33.6,55.6,0.));
#125 = DIRECTION('',(1.,0.,0.));
#126 = DIRECTION('',(0.,-1.,0.));
#127 = ADVANCED_FACE('',(#128),#153,.F.);
#128 = FACE_BOUND('',#129,.F.);
#129 = EDGE_LOOP('',(#130,#131,#139,#147));
#130 = ORIENTED_EDGE('',*,*,#21,.F.);
#131 = ORIENTED_EDGE('',*,*,#132,.T.);
#132 = EDGE_CURVE('',#22,#133,#135,.T.);
#133 = VERTEX_POINT('',#134);
#134 = CARTESIAN_POINT('',(-31.1,36.19,16.1));
#135 = LINE('',#136,#137);
#136 = CARTESIAN_POINT('',(-33.6,36.19,16.1));
#137 = VECTOR('',#138,1.);
#138 = DIRECTION('',(1.,0.,0.));
#139 = ORIENTED_EDGE('',*,*,#140,.T.);
#140 = EDGE_CURVE('',#133,#141,#143,.T.);
#141 = VERTEX_POINT('',#142);
#142 = CARTESIAN_POINT('',(-31.1,42.21,16.1));
#143 = LINE('',#144,#145);
#144 = CARTESIAN_POINT('',(-31.1,42.15,16.1));
#145 = VECTOR('',#146,1.);
#146 = DIRECTION('',(0.,1.,0.));
#147 = ORIENTED_EDGE('',*,*,#148,.F.);
#148 = EDGE_CURVE('',#24,#141,#149,.T.);
#149 = LINE('',#150,#151);
#150 = CARTESIAN_POINT('',(-33.6,42.21,16.1));
#151 = VECTOR('',#152,1.);
#152 = DIRECTION('',(1.,0.,0.));
#153 = PLANE('',#154);
#154 = AXIS2_PLACEMENT_3D('',#155,#156,#157);
#155 = CARTESIAN_POINT('',(-33.6,34.7,16.1));
#156 = DIRECTION('',(0.,0.,1.));
#157 = DIRECTION('',(0.,1.,0.));
#158 = ADVANCED_FACE('',(#159),#178,.F.);
#159 = FACE_BOUND('',#160,.F.);
#160 = EDGE_LOOP('',(#161,#162,#170,#177));
#161 = ORIENTED_EDGE('',*,*,#82,.T.);
#162 = ORIENTED_EDGE('',*,*,#163,.T.);
#163 = EDGE_CURVE('',#75,#164,#166,.T.);
#164 = VERTEX_POINT('',#165);
#165 = CARTESIAN_POINT('',(-31.1,34.7,14.61));
#166 = LINE('',#167,#168);
#167 = CARTESIAN_POINT('',(-33.6,34.7,14.61));
#168 = VECTOR('',#169,1.);
#169 = DIRECTION('',(1.,0.,0.));
#170 = ORIENTED_EDGE('',*,*,#171,.F.);
#171 = EDGE_CURVE('',#133,#164,#172,.T.);
#172 = CIRCLE('',#173,1.49);
#173 = AXIS2_PLACEMENT_3D('',#174,#175,#176);
#174 = CARTESIAN_POINT('',(-31.1,36.19,14.61));
#175 = DIRECTION('',(1.,0.,-0.));
#176 = DIRECTION('',(0.,0.,1.));
#177 = ORIENTED_EDGE('',*,*,#132,.F.);
#178 = CYLINDRICAL_SURFACE('',#179,1.49);
#179 = AXIS2_PLACEMENT_3D('',#180,#181,#182);
#180 = CARTESIAN_POINT('',(-33.6,36.19,14.61));
#181 = DIRECTION('',(1.,0.,0.));
#182 = DIRECTION('',(0.,0.,1.));
#183 = ADVANCED_FACE('',(#184),#203,.F.);
#184 = FACE_BOUND('',#185,.T.);
#185 = EDGE_LOOP('',(#186,#187,#195,#202));
#186 = ORIENTED_EDGE('',*,*,#31,.T.);
#187 = ORIENTED_EDGE('',*,*,#188,.T.);
#188 = EDGE_CURVE('',#32,#189,#191,.T.);
#189 = VERTEX_POINT('',#190);
#190 = CARTESIAN_POINT('',(-31.1,43.7,14.61));
#191 = LINE('',#192,#193);
#192 = CARTESIAN_POINT('',(-33.6,43.7,14.61));
#193 = VECTOR('',#194,1.);
#194 = DIRECTION('',(1.,0.,0.));
#195 = ORIENTED_EDGE('',*,*,#196,.F.);
#196 = EDGE_CURVE('',#141,#189,#197,.T.);
#197 = CIRCLE('',#198,1.49);
#198 = AXIS2_PLACEMENT_3D('',#199,#200,#201);
#199 = CARTESIAN_POINT('',(-31.1,42.21,14.61));
#200 = DIRECTION('',(-1.,0.,0.));
#201 = DIRECTION('',(0.,0.,1.));
#202 = ORIENTED_EDGE('',*,*,#148,.F.);
#203 = CYLINDRICAL_SURFACE('',#204,1.49);
#204 = AXIS2_PLACEMENT_3D('',#205,#206,#207);
#205 = CARTESIAN_POINT('',(-33.6,42.21,14.61));
#206 = DIRECTION('',(1.,0.,0.));
#207 = DIRECTION('',(0.,0.,1.));
#208 = ADVANCED_FACE('',(#209),#227,.F.);
#209 = FACE_BOUND('',#210,.F.);
#210 = EDGE_LOOP('',(#211,#212,#220,#226));
#211 = ORIENTED_EDGE('',*,*,#74,.F.);
#212 = ORIENTED_EDGE('',*,*,#213,.T.);
#213 = EDGE_CURVE('',#66,#214,#216,.T.);
#214 = VERTEX_POINT('',#215);
#215 = CARTESIAN_POINT('',(-31.1,34.7,14.19));
#216 = LINE('',#217,#218);
#217 = CARTESIAN_POINT('',(-33.6,34.7,14.19));
#218 = VECTOR('',#219,1.);
#219 = DIRECTION('',(1.,0.,0.));
#220 = ORIENTED_EDGE('',*,*,#221,.T.);
#221 = EDGE_CURVE('',#214,#164,#222,.T.);
#222 = LINE('',#223,#224);
#223 = CARTESIAN_POINT('',(-31.1,34.7,6.35));
#224 = VECTOR('',#225,1.);
#225 = DIRECTION('',(0.,0.,1.));
#226 = ORIENTED_EDGE('',*,*,#163,.F.);
#227 = PLANE('',#228);
#228 = AXIS2_PLACEMENT_3D('',#229,#230,#231);
#229 = CARTESIAN_POINT('',(-33.6,34.7,12.7));
#230 = DIRECTION('',(0.,-1.,0.));
#231 = DIRECTION('',(0.,0.,1.));
#232 = ADVANCED_FACE('',(#233),#251,.F.);
#233 = FACE_BOUND('',#234,.F.);
#234 = EDGE_LOOP('',(#235,#236,#237,#245));
#235 = ORIENTED_EDGE('',*,*,#40,.F.);
#236 = ORIENTED_EDGE('',*,*,#188,.T.);
#237 = ORIENTED_EDGE('',*,*,#238,.T.);
#238 = EDGE_CURVE('',#189,#239,#241,.T.);
#239 = VERTEX_POINT('',#240);
#240 = CARTESIAN_POINT('',(-31.1,43.7,14.19));
#241 = LINE('',#242,#243);
#242 = CARTESIAN_POINT('',(-31.1,43.7,8.05));
#243 = VECTOR('',#244,1.);
#244 = DIRECTION('',(0.,0.,-1.));
#245 = ORIENTED_EDGE('',*,*,#246,.F.);
#246 = EDGE_CURVE('',#41,#239,#247,.T.);
#247 = LINE('',#248,#249);
#248 = CARTESIAN_POINT('',(-33.6,43.7,14.19));
#249 = VECTOR('',#250,1.);
#250 = DIRECTION('',(1.,0.,0.));
#251 = PLANE('',#252);
#252 = AXIS2_PLACEMENT_3D('',#253,#254,#255);
#253 = CARTESIAN_POINT('',(-33.6,43.7,16.1));
#254 = DIRECTION('',(0.,1.,0.));
#255 = DIRECTION('',(0.,0.,-1.));
#256 = ADVANCED_FACE('',(#257),#276,.F.);
#257 = FACE_BOUND('',#258,.F.);
#258 = EDGE_LOOP('',(#259,#260,#268,#275));
#259 = ORIENTED_EDGE('',*,*,#65,.T.);
#260 = ORIENTED_EDGE('',*,*,#261,.T.);
#261 = EDGE_CURVE('',#58,#262,#264,.T.);
#262 = VERTEX_POINT('',#263);
#263 = CARTESIAN_POINT('',(-31.1,36.19,12.7));
#264 = LINE('',#265,#266);
#265 = CARTESIAN_POINT('',(-33.6,36.19,12.7));
#266 = VECTOR('',#267,1.);
#267 = DIRECTION('',(1.,0.,0.));
#268 = ORIENTED_EDGE('',*,*,#269,.F.);
#269 = EDGE_CURVE('',#214,#262,#270,.T.);
#270 = CIRCLE('',#271,1.49);
#271 = AXIS2_PLACEMENT_3D('',#272,#273,#274);
#272 = CARTESIAN_POINT('',(-31.1,36.19,14.19));
#273 = DIRECTION('',(1.,0.,-0.));
#274 = DIRECTION('',(0.,0.,1.));
#275 = ORIENTED_EDGE('',*,*,#213,.F.);
#276 = CYLINDRICAL_SURFACE('',#277,1.49);
#277 = AXIS2_PLACEMENT_3D('',#278,#279,#280);
#278 = CARTESIAN_POINT('',(-33.6,36.19,14.19));
#279 = DIRECTION('',(1.,0.,0.));
#280 = DIRECTION('',(0.,-1.,0.));
#281 = ADVANCED_FACE('',(#282),#301,.F.);
#282 = FACE_BOUND('',#283,.F.);
#283 = EDGE_LOOP('',(#284,#285,#286,#295));
#284 = ORIENTED_EDGE('',*,*,#48,.T.);
#285 = ORIENTED_EDGE('',*,*,#246,.T.);
#286 = ORIENTED_EDGE('',*,*,#287,.F.);
#287 = EDGE_CURVE('',#288,#239,#290,.T.);
#288 = VERTEX_POINT('',#289);
#289 = CARTESIAN_POINT('',(-31.1,42.21,12.7));
#290 = CIRCLE('',#291,1.49);
#291 = AXIS2_PLACEMENT_3D('',#292,#293,#294);
#292 = CARTESIAN_POINT('',(-31.1,42.21,14.19));
#293 = DIRECTION('',(1.,0.,-0.));
#294 = DIRECTION('',(0.,0.,1.));
#295 = ORIENTED_EDGE('',*,*,#296,.F.);
#296 = EDGE_CURVE('',#49,#288,#297,.T.);
#297 = LINE('',#298,#299);
#298 = CARTESIAN_POINT('',(-33.6,42.21,12.7));
#299 = VECTOR('',#300,1.);
#300 = DIRECTION('',(1.,0.,0.));
#301 = CYLINDRICAL_SURFACE('',#302,1.49);
#302 = AXIS2_PLACEMENT_3D('',#303,#304,#305);
#303 = CARTESIAN_POINT('',(-33.6,42.21,14.19));
#304 = DIRECTION('',(1.,0.,0.));
#305 = DIRECTION('',(0.,0.,-1.));
#306 = ADVANCED_FACE('',(#307),#318,.F.);
#307 = FACE_BOUND('',#308,.F.);
#308 = EDGE_LOOP('',(#309,#310,#311,#317));
#309 = ORIENTED_EDGE('',*,*,#57,.F.);
#310 = ORIENTED_EDGE('',*,*,#296,.T.);
#311 = ORIENTED_EDGE('',*,*,#312,.T.);
#312 = EDGE_CURVE('',#288,#262,#313,.T.);
#313 = LINE('',#314,#315);
#314 = CARTESIAN_POINT('',(-31.1,46.65,12.7));
#315 = VECTOR('',#316,1.);
#316 = DIRECTION('',(0.,-1.,0.));
#317 = ORIENTED_EDGE('',*,*,#261,.F.);
#318 = PLANE('',#319);
#319 = AXIS2_PLACEMENT_3D('',#320,#321,#322);
#320 = CARTESIAN_POINT('',(-33.6,43.7,12.7));
#321 = DIRECTION('',(0.,0.,-1.));
#322 = DIRECTION('',(0.,-1.,0.));
#323 = ADVANCED_FACE('',(#324),#349,.F.);
#324 = FACE_BOUND('',#325,.F.);
#325 = EDGE_LOOP('',(#326,#336,#342,#343));
#326 = ORIENTED_EDGE('',*,*,#327,.T.);
#327 = EDGE_CURVE('',#328,#330,#332,.T.);
#328 = VERTEX_POINT('',#329);
#329 = CARTESIAN_POINT('',(33.6,55.6,0.));
#330 = VERTEX_POINT('',#331);
#331 = CARTESIAN_POINT('',(33.6,55.6,18.));
#332 = LINE('',#333,#334);
#333 = CARTESIAN_POINT('',(33.6,55.6,0.));
#334 = VECTOR('',#335,1.);
#335 = DIRECTION('',(0.,0.,1.));
#336 = ORIENTED_EDGE('',*,*,#337,.T.);
#337 = EDGE_CURVE('',#330,#94,#338,.T.);
#338 = LINE('',#339,#340);
#339 = CARTESIAN_POINT('',(33.6,55.6,18.));
#340 = VECTOR('',#341,1.);
#341 = DIRECTION('',(-1.,0.,0.));
#342 = ORIENTED_EDGE('',*,*,#91,.F.);
#343 = ORIENTED_EDGE('',*,*,#344,.F.);
#344 = EDGE_CURVE('',#328,#92,#345,.T.);
#345 = LINE('',#346,#347);
#346 = CARTESIAN_POINT('',(33.6,55.6,0.));
#347 = VECTOR('',#348,1.);
#348 = DIRECTION('',(-1.,0.,0.));
#349 = PLANE('',#350);
#350 = AXIS2_PLACEMENT_3D('',#351,#352,#353);
#351 = CARTESIAN_POINT('',(33.6,55.6,0.));
#352 = DIRECTION('',(0.,-1.,0.));
#353 = DIRECTION('',(-1.,0.,0.));
#354 = ADVANCED_FACE('',(#355,#373,#384,#395),#406,.T.);
#355 = FACE_BOUND('',#356,.T.);
#356 = EDGE_LOOP('',(#357,#358,#366,#372));
#357 = ORIENTED_EDGE('',*,*,#344,.F.);
#358 = ORIENTED_EDGE('',*,*,#359,.F.);
#359 = EDGE_CURVE('',#360,#328,#362,.T.);
#360 = VERTEX_POINT('',#361);
#361 = CARTESIAN_POINT('',(33.6,-55.6,0.));
#362 = LINE('',#363,#364);
#363 = CARTESIAN_POINT('',(33.6,-55.6,0.));
#364 = VECTOR('',#365,1.);
#365 = DIRECTION('',(0.,1.,0.));
#366 = ORIENTED_EDGE('',*,*,#367,.F.);
#367 = EDGE_CURVE('',#110,#360,#368,.T.);
#368 = LINE('',#369,#370);
#369 = CARTESIAN_POINT('',(-33.6,-55.6,0.));
#370 = VECTOR('',#371,1.);
#371 = DIRECTION('',(1.,0.,0.));
#372 = ORIENTED_EDGE('',*,*,#117,.F.);
#373 = FACE_BOUND('',#374,.T.);
#374 = EDGE_LOOP('',(#375));
#375 = ORIENTED_EDGE('',*,*,#376,.F.);
#376 = EDGE_CURVE('',#377,#377,#379,.T.);
#377 = VERTEX_POINT('',#378);
#378 = CARTESIAN_POINT('',(23.6,-45.65,0.));
#379 = CIRCLE('',#380,3.1);
#380 = AXIS2_PLACEMENT_3D('',#381,#382,#383);
#381 = CARTESIAN_POINT('',(26.7,-45.65,0.));
#382 = DIRECTION('',(0.,0.,-1.));
#383 = DIRECTION('',(-1.,0.,0.));
#384 = FACE_BOUND('',#385,.T.);
#385 = EDGE_LOOP('',(#386));
#386 = ORIENTED_EDGE('',*,*,#387,.F.);
#387 = EDGE_CURVE('',#388,#388,#390,.T.);
#388 = VERTEX_POINT('',#389);
#389 = CARTESIAN_POINT('',(-30.,-45.65,0.));
#390 = CIRCLE('',#391,3.1);
#391 = AXIS2_PLACEMENT_3D('',#392,#393,#394);
#392 = CARTESIAN_POINT('',(-26.9,-45.65,0.));
#393 = DIRECTION('',(0.,0.,-1.));
#394 = DIRECTION('',(-1.,0.,0.));
#395 = FACE_BOUND('',#396,.T.);
#396 = EDGE_LOOP('',(#397));
#397 = ORIENTED_EDGE('',*,*,#398,.F.);
#398 = EDGE_CURVE('',#399,#399,#401,.T.);
#399 = VERTEX_POINT('',#400);
#400 = CARTESIAN_POINT('',(23.6,45.25,0.));
#401 = CIRCLE('',#402,3.1);
#402 = AXIS2_PLACEMENT_3D('',#403,#404,#405);
#403 = CARTESIAN_POINT('',(26.7,45.25,0.));
#404 = DIRECTION('',(0.,0.,-1.));
#405 = DIRECTION('',(-1.,0.,0.));
#406 = PLANE('',#407);
#407 = AXIS2_PLACEMENT_3D('',#408,#409,#410);
#408 = CARTESIAN_POINT('',(0.,-7.647096707732E-15,0.));
#409 = DIRECTION('',(-0.,-0.,-1.));
#410 = DIRECTION('',(-1.,0.,0.));
#411 = ADVANCED_FACE('',(#412,#430),#464,.T.);
#412 = FACE_BOUND('',#413,.T.);
#413 = EDGE_LOOP('',(#414,#415,#416,#424));
#414 = ORIENTED_EDGE('',*,*,#337,.T.);
#415 = ORIENTED_EDGE('',*,*,#101,.T.);
#416 = ORIENTED_EDGE('',*,*,#417,.T.);
#417 = EDGE_CURVE('',#102,#418,#420,.T.);
#418 = VERTEX_POINT('',#419);
#419 = CARTESIAN_POINT('',(33.6,-55.6,18.));
#420 = LINE('',#421,#422);
#421 = CARTESIAN_POINT('',(-33.6,-55.6,18.));
#422 = VECTOR('',#423,1.);
#423 = DIRECTION('',(1.,0.,0.));
#424 = ORIENTED_EDGE('',*,*,#425,.T.);
#425 = EDGE_CURVE('',#418,#330,#426,.T.);
#426 = LINE('',#427,#428);
#427 = CARTESIAN_POINT('',(33.6,-55.6,18.));
#428 = VECTOR('',#429,1.);
#429 = DIRECTION('',(0.,1.,0.));
#430 = FACE_BOUND('',#431,.F.);
#431 = EDGE_LOOP('',(#432,#442,#450,#458));
#432 = ORIENTED_EDGE('',*,*,#433,.T.);
#433 = EDGE_CURVE('',#434,#436,#438,.T.);
#434 = VERTEX_POINT('',#435);
#435 = CARTESIAN_POINT('',(31.1,49.6,18.));
#436 = VERTEX_POINT('',#437);
#437 = CARTESIAN_POINT('',(-31.1,49.6,18.));
#438 = LINE('',#439,#440);
#439 = CARTESIAN_POINT('',(31.1,49.6,18.));
#440 = VECTOR('',#441,1.);
#441 = DIRECTION('',(-1.,0.,0.));
#442 = ORIENTED_EDGE('',*,*,#443,.T.);
#443 = EDGE_CURVE('',#436,#444,#446,.T.);
#444 = VERTEX_POINT('',#445);
#445 = CARTESIAN_POINT('',(-31.1,-49.6,18.));
#446 = LINE('',#447,#448);
#447 = CARTESIAN_POINT('',(-31.1,49.6,18.));
#448 = VECTOR('',#449,1.);
#449 = DIRECTION('',(0.,-1.,0.));
#450 = ORIENTED_EDGE('',*,*,#451,.T.);
#451 = EDGE_CURVE('',#444,#452,#454,.T.);
#452 = VERTEX_POINT('',#453);
#453 = CARTESIAN_POINT('',(31.1,-49.6,18.));
#454 = LINE('',#455,#456);
#455 = CARTESIAN_POINT('',(-31.1,-49.6,18.));
#456 = VECTOR('',#457,1.);
#457 = DIRECTION('',(1.,0.,0.));
#458 = ORIENTED_EDGE('',*,*,#459,.T.);
#459 = EDGE_CURVE('',#452,#434,#460,.T.);
#460 = LINE('',#461,#462);
#461 = CARTESIAN_POINT('',(31.1,-49.6,18.));
#462 = VECTOR('',#463,1.);
#463 = DIRECTION('',(0.,1.,0.));
#464 = PLANE('',#465);
#465 = AXIS2_PLACEMENT_3D('',#466,#467,#468);
#466 = CARTESIAN_POINT('',(0.,-2.676558863369E-15,18.));
#467 = DIRECTION('',(0.,0.,1.));
#468 = DIRECTION('',(1.,0.,0.));
#469 = ADVANCED_FACE('',(#470),#481,.F.);
#470 = FACE_BOUND('',#471,.F.);
#471 = EDGE_LOOP('',(#472,#473,#474,#480));
#472 = ORIENTED_EDGE('',*,*,#109,.T.);
#473 = ORIENTED_EDGE('',*,*,#417,.T.);
#474 = ORIENTED_EDGE('',*,*,#475,.F.);
#475 = EDGE_CURVE('',#360,#418,#476,.T.);
#476 = LINE('',#477,#478);
#477 = CARTESIAN_POINT('',(33.6,-55.6,0.));
#478 = VECTOR('',#479,1.);
#479 = DIRECTION('',(0.,0.,1.));
#480 = ORIENTED_EDGE('',*,*,#367,.F.);
#481 = PLANE('',#482);
#482 = AXIS2_PLACEMENT_3D('',#483,#484,#485);
#483 = CARTESIAN_POINT('',(-33.6,-55.6,0.));
#484 = DIRECTION('',(0.,1.,0.));
#485 = DIRECTION('',(1.,0.,0.));
#486 = ADVANCED_FACE('',(#487,#497),#522,.T.);
#487 = FACE_BOUND('',#488,.T.);
#488 = EDGE_LOOP('',(#489,#490,#491,#492,#493,#494,#495,#496));
#489 = ORIENTED_EDGE('',*,*,#140,.T.);
#490 = ORIENTED_EDGE('',*,*,#196,.T.);
#491 = ORIENTED_EDGE('',*,*,#238,.T.);
#492 = ORIENTED_EDGE('',*,*,#287,.F.);
#493 = ORIENTED_EDGE('',*,*,#312,.T.);
#494 = ORIENTED_EDGE('',*,*,#269,.F.);
#495 = ORIENTED_EDGE('',*,*,#221,.T.);
#496 = ORIENTED_EDGE('',*,*,#171,.F.);
#497 = FACE_BOUND('',#498,.T.);
#498 = EDGE_LOOP('',(#499,#509,#515,#516));
#499 = ORIENTED_EDGE('',*,*,#500,.F.);
#500 = EDGE_CURVE('',#501,#503,#505,.T.);
#501 = VERTEX_POINT('',#502);
#502 = CARTESIAN_POINT('',(-31.1,49.6,10.));
#503 = VERTEX_POINT('',#504);
#504 = CARTESIAN_POINT('',(-31.1,-49.6,10.));
#505 = LINE('',#506,#507);
#506 = CARTESIAN_POINT('',(-31.1,49.6,10.));
#507 = VECTOR('',#508,1.);
#508 = DIRECTION('',(0.,-1.,0.));
#509 = ORIENTED_EDGE('',*,*,#510,.T.);
#510 = EDGE_CURVE('',#501,#436,#511,.T.);
#511 = LINE('',#512,#513);
#512 = CARTESIAN_POINT('',(-31.1,49.6,0.));
#513 = VECTOR('',#514,1.);
#514 = DIRECTION('',(0.,0.,1.));
#515 = ORIENTED_EDGE('',*,*,#443,.T.);
#516 = ORIENTED_EDGE('',*,*,#517,.F.);
#517 = EDGE_CURVE('',#503,#444,#518,.T.);
#518 = LINE('',#519,#520);
#519 = CARTESIAN_POINT('',(-31.1,-49.6,0.));
#520 = VECTOR('',#521,1.);
#521 = DIRECTION('',(0.,0.,1.));
#522 = PLANE('',#523);
#523 = AXIS2_PLACEMENT_3D('',#524,#525,#526);
#524 = CARTESIAN_POINT('',(-31.1,49.6,0.));
#525 = DIRECTION('',(1.,0.,0.));
#526 = DIRECTION('',(0.,-1.,0.));
#527 = ADVANCED_FACE('',(#528),#534,.F.);
#528 = FACE_BOUND('',#529,.F.);
#529 = EDGE_LOOP('',(#530,#531,#532,#533));
#530 = ORIENTED_EDGE('',*,*,#475,.T.);
#531 = ORIENTED_EDGE('',*,*,#425,.T.);
#532 = ORIENTED_EDGE('',*,*,#327,.F.);
#533 = ORIENTED_EDGE('',*,*,#359,.F.);
#534 = PLANE('',#535);
#535 = AXIS2_PLACEMENT_3D('',#536,#537,#538);
#536 = CARTESIAN_POINT('',(33.6,-55.6,0.));
#537 = DIRECTION('',(-1.,0.,0.));
#538 = DIRECTION('',(0.,1.,0.));
#539 = ADVANCED_FACE('',(#540),#559,.F.);
#540 = FACE_BOUND('',#541,.T.);
#541 = EDGE_LOOP('',(#542,#550,#551,#552));
#542 = ORIENTED_EDGE('',*,*,#543,.F.);
#543 = EDGE_CURVE('',#377,#544,#546,.T.);
#544 = VERTEX_POINT('',#545);
#545 = CARTESIAN_POINT('',(23.6,-45.65,1.7));
#546 = LINE('',#547,#548);
#547 = CARTESIAN_POINT('',(23.6,-45.65,0.));
#548 = VECTOR('',#549,1.);
#549 = DIRECTION('',(0.,0.,1.));
#550 = ORIENTED_EDGE('',*,*,#376,.T.);
#551 = ORIENTED_EDGE('',*,*,#543,.T.);
#552 = ORIENTED_EDGE('',*,*,#553,.F.);
#553 = EDGE_CURVE('',#544,#544,#554,.T.);
#554 = CIRCLE('',#555,3.1);
#555 = AXIS2_PLACEMENT_3D('',#556,#557,#558);
#556 = CARTESIAN_POINT('',(26.7,-45.65,1.7));
#557 = DIRECTION('',(0.,0.,-1.));
#558 = DIRECTION('',(-1.,0.,0.));
#559 = CYLINDRICAL_SURFACE('',#560,3.1);
#560 = AXIS2_PLACEMENT_3D('',#561,#562,#563);
#561 = CARTESIAN_POINT('',(26.7,-45.65,0.));
#562 = DIRECTION('',(0.,0.,1.));
#563 = DIRECTION('',(-1.,0.,0.));
#564 = ADVANCED_FACE('',(#565),#584,.F.);
#565 = FACE_BOUND('',#566,.T.);
#566 = EDGE_LOOP('',(#567,#575,#576,#577));
#567 = ORIENTED_EDGE('',*,*,#568,.F.);
#568 = EDGE_CURVE('',#388,#569,#571,.T.);
#569 = VERTEX_POINT('',#570);
#570 = CARTESIAN_POINT('',(-30.,-45.65,1.7));
#571 = LINE('',#572,#573);
#572 = CARTESIAN_POINT('',(-30.,-45.65,0.));
#573 = VECTOR('',#574,1.);
#574 = DIRECTION('',(0.,0.,1.));
#575 = ORIENTED_EDGE('',*,*,#387,.T.);
#576 = ORIENTED_EDGE('',*,*,#568,.T.);
#577 = ORIENTED_EDGE('',*,*,#578,.F.);
#578 = EDGE_CURVE('',#569,#569,#579,.T.);
#579 = CIRCLE('',#580,3.1);
#580 = AXIS2_PLACEMENT_3D('',#581,#582,#583);
#581 = CARTESIAN_POINT('',(-26.9,-45.65,1.7));
#582 = DIRECTION('',(0.,0.,-1.));
#583 = DIRECTION('',(-1.,0.,0.));
#584 = CYLINDRICAL_SURFACE('',#585,3.1);
#585 = AXIS2_PLACEMENT_3D('',#586,#587,#588);
#586 = CARTESIAN_POINT('',(-26.9,-45.65,0.));
#587 = DIRECTION('',(0.,0.,1.));
#588 = DIRECTION('',(-1.,0.,0.));
#589 = ADVANCED_FACE('',(#590),#609,.F.);
#590 = FACE_BOUND('',#591,.T.);
#591 = EDGE_LOOP('',(#592,#600,#601,#602));
#592 = ORIENTED_EDGE('',*,*,#593,.F.);
#593 = EDGE_CURVE('',#399,#594,#596,.T.);
#594 = VERTEX_POINT('',#595);
#595 = CARTESIAN_POINT('',(23.6,45.25,1.7));
#596 = LINE('',#597,#598);
#597 = CARTESIAN_POINT('',(23.6,45.25,0.));
#598 = VECTOR('',#599,1.);
#599 = DIRECTION('',(0.,0.,1.));
#600 = ORIENTED_EDGE('',*,*,#398,.T.);
#601 = ORIENTED_EDGE('',*,*,#593,.T.);
#602 = ORIENTED_EDGE('',*,*,#603,.F.);
#603 = EDGE_CURVE('',#594,#594,#604,.T.);
#604 = CIRCLE('',#605,3.1);
#605 = AXIS2_PLACEMENT_3D('',#606,#607,#608);
#606 = CARTESIAN_POINT('',(26.7,45.25,1.7));
#607 = DIRECTION('',(0.,0.,-1.));
#608 = DIRECTION('',(-1.,0.,0.));
#609 = CYLINDRICAL_SURFACE('',#610,3.1);
#610 = AXIS2_PLACEMENT_3D('',#611,#612,#613);
#611 = CARTESIAN_POINT('',(26.7,45.25,0.));
#612 = DIRECTION('',(0.,0.,1.));
#613 = DIRECTION('',(-1.,0.,0.));
#614 = ADVANCED_FACE('',(#615),#633,.T.);
#615 = FACE_BOUND('',#616,.T.);
#616 = EDGE_LOOP('',(#617,#625,#631,#632));
#617 = ORIENTED_EDGE('',*,*,#618,.F.);
#618 = EDGE_CURVE('',#619,#501,#621,.T.);
#619 = VERTEX_POINT('',#620);
#620 = CARTESIAN_POINT('',(31.1,49.6,10.));
#621 = LINE('',#622,#623);
#622 = CARTESIAN_POINT('',(31.1,49.6,10.));
#623 = VECTOR('',#624,1.);
#624 = DIRECTION('',(-1.,0.,0.));
#625 = ORIENTED_EDGE('',*,*,#626,.T.);
#626 = EDGE_CURVE('',#619,#434,#627,.T.);
#627 = LINE('',#628,#629);
#628 = CARTESIAN_POINT('',(31.1,49.6,0.));
#629 = VECTOR('',#630,1.);
#630 = DIRECTION('',(0.,0.,1.));
#631 = ORIENTED_EDGE('',*,*,#433,.T.);
#632 = ORIENTED_EDGE('',*,*,#510,.F.);
#633 = PLANE('',#634);
#634 = AXIS2_PLACEMENT_3D('',#635,#636,#637);
#635 = CARTESIAN_POINT('',(31.1,49.6,0.));
#636 = DIRECTION('',(0.,-1.,0.));
#637 = DIRECTION('',(-1.,0.,0.));
#638 = ADVANCED_FACE('',(#639),#657,.T.);
#639 = FACE_BOUND('',#640,.T.);
#640 = EDGE_LOOP('',(#641,#649,#650,#651));
#641 = ORIENTED_EDGE('',*,*,#642,.F.);
#642 = EDGE_CURVE('',#503,#643,#645,.T.);
#643 = VERTEX_POINT('',#644);
#644 = CARTESIAN_POINT('',(31.1,-49.6,10.));
#645 = LINE('',#646,#647);
#646 = CARTESIAN_POINT('',(-31.1,-49.6,10.));
#647 = VECTOR('',#648,1.);
#648 = DIRECTION('',(1.,0.,0.));
#649 = ORIENTED_EDGE('',*,*,#517,.T.);
#650 = ORIENTED_EDGE('',*,*,#451,.T.);
#651 = ORIENTED_EDGE('',*,*,#652,.F.);
#652 = EDGE_CURVE('',#643,#452,#653,.T.);
#653 = LINE('',#654,#655);
#654 = CARTESIAN_POINT('',(31.1,-49.6,0.));
#655 = VECTOR('',#656,1.);
#656 = DIRECTION('',(0.,0.,1.));
#657 = PLANE('',#658);
#658 = AXIS2_PLACEMENT_3D('',#659,#660,#661);
#659 = CARTESIAN_POINT('',(-31.1,-49.6,0.));
#660 = DIRECTION('',(0.,1.,0.));
#661 = DIRECTION('',(1.,0.,0.));
#662 = ADVANCED_FACE('',(#663),#674,.T.);
#663 = FACE_BOUND('',#664,.T.);
#664 = EDGE_LOOP('',(#665,#671,#672,#673));
#665 = ORIENTED_EDGE('',*,*,#666,.F.);
#666 = EDGE_CURVE('',#643,#619,#667,.T.);
#667 = LINE('',#668,#669);
#668 = CARTESIAN_POINT('',(31.1,-49.6,10.));
#669 = VECTOR('',#670,1.);
#670 = DIRECTION('',(0.,1.,0.));
#671 = ORIENTED_EDGE('',*,*,#652,.T.);
#672 = ORIENTED_EDGE('',*,*,#459,.T.);
#673 = ORIENTED_EDGE('',*,*,#626,.F.);
#674 = PLANE('',#675);
#675 = AXIS2_PLACEMENT_3D('',#676,#677,#678);
#676 = CARTESIAN_POINT('',(31.1,-49.6,0.));
#677 = DIRECTION('',(-1.,0.,0.));
#678 = DIRECTION('',(0.,1.,0.));
#679 = ADVANCED_FACE('',(#680,#686,#697,#708,#742),#753,.T.);
#680 = FACE_BOUND('',#681,.T.);
#681 = EDGE_LOOP('',(#682,#683,#684,#685));
#682 = ORIENTED_EDGE('',*,*,#618,.T.);
#683 = ORIENTED_EDGE('',*,*,#500,.T.);
#684 = ORIENTED_EDGE('',*,*,#642,.T.);
#685 = ORIENTED_EDGE('',*,*,#666,.T.);
#686 = FACE_BOUND('',#687,.T.);
#687 = EDGE_LOOP('',(#688));
#688 = ORIENTED_EDGE('',*,*,#689,.F.);
#689 = EDGE_CURVE('',#690,#690,#692,.T.);
#690 = VERTEX_POINT('',#691);
#691 = CARTESIAN_POINT('',(-25.,-45.65,10.));
#692 = CIRCLE('',#693,1.9);
#693 = AXIS2_PLACEMENT_3D('',#694,#695,#696);
#694 = CARTESIAN_POINT('',(-26.9,-45.65,10.));
#695 = DIRECTION('',(0.,0.,1.));
#696 = DIRECTION('',(1.,0.,0.));
#697 = FACE_BOUND('',#698,.T.);
#698 = EDGE_LOOP('',(#699));
#699 = ORIENTED_EDGE('',*,*,#700,.F.);
#700 = EDGE_CURVE('',#701,#701,#703,.T.);
#701 = VERTEX_POINT('',#702);
#702 = CARTESIAN_POINT('',(28.6,-45.65,10.));
#703 = CIRCLE('',#704,1.9);
#704 = AXIS2_PLACEMENT_3D('',#705,#706,#707);
#705 = CARTESIAN_POINT('',(26.7,-45.65,10.));
#706 = DIRECTION('',(0.,0.,1.));
#707 = DIRECTION('',(1.,0.,0.));
#708 = FACE_BOUND('',#709,.T.);
#709 = EDGE_LOOP('',(#710,#720,#728,#736));
#710 = ORIENTED_EDGE('',*,*,#711,.F.);
#711 = EDGE_CURVE('',#712,#714,#716,.T.);
#712 = VERTEX_POINT('',#713);
#713 = CARTESIAN_POINT('',(-30.1,41.6,10.));
#714 = VERTEX_POINT('',#715);
#715 = CARTESIAN_POINT('',(-30.1,-41.6,10.));
#716 = LINE('',#717,#718);
#717 = CARTESIAN_POINT('',(-30.1,41.6,10.));
#718 = VECTOR('',#719,1.);
#719 = DIRECTION('',(0.,-1.,0.));
#720 = ORIENTED_EDGE('',*,*,#721,.F.);
#721 = EDGE_CURVE('',#722,#712,#724,.T.);
#722 = VERTEX_POINT('',#723);
#723 = CARTESIAN_POINT('',(30.1,41.6,10.));
#724 = LINE('',#725,#726);
#725 = CARTESIAN_POINT('',(30.1,41.6,10.));
#726 = VECTOR('',#727,1.);
#727 = DIRECTION('',(-1.,0.,0.));
#728 = ORIENTED_EDGE('',*,*,#729,.F.);
#729 = EDGE_CURVE('',#730,#722,#732,.T.);
#730 = VERTEX_POINT('',#731);
#731 = CARTESIAN_POINT('',(30.1,-41.6,10.));
#732 = LINE('',#733,#734);
#733 = CARTESIAN_POINT('',(30.1,-41.6,10.));
#734 = VECTOR('',#735,1.);
#735 = DIRECTION('',(0.,1.,0.));
#736 = ORIENTED_EDGE('',*,*,#737,.F.);
#737 = EDGE_CURVE('',#714,#730,#738,.T.);
#738 = LINE('',#739,#740);
#739 = CARTESIAN_POINT('',(-30.1,-41.6,10.));
#740 = VECTOR('',#741,1.);
#741 = DIRECTION('',(1.,0.,0.));
#742 = FACE_BOUND('',#743,.T.);
#743 = EDGE_LOOP('',(#744));
#744 = ORIENTED_EDGE('',*,*,#745,.F.);
#745 = EDGE_CURVE('',#746,#746,#748,.T.);
#746 = VERTEX_POINT('',#747);
#747 = CARTESIAN_POINT('',(28.6,45.25,10.));
#748 = CIRCLE('',#749,1.9);
#749 = AXIS2_PLACEMENT_3D('',#750,#751,#752);
#750 = CARTESIAN_POINT('',(26.7,45.25,10.));
#751 = DIRECTION('',(0.,0.,1.));
#752 = DIRECTION('',(1.,0.,0.));
#753 = PLANE('',#754);
#754 = AXIS2_PLACEMENT_3D('',#755,#756,#757);
#755 = CARTESIAN_POINT('',(0.,-2.676558863369E-15,10.));
#756 = DIRECTION('',(0.,0.,1.));
#757 = DIRECTION('',(1.,0.,0.));
#758 = ADVANCED_FACE('',(#759,#762),#773,.T.);
#759 = FACE_BOUND('',#760,.T.);
#760 = EDGE_LOOP('',(#761));
#761 = ORIENTED_EDGE('',*,*,#553,.T.);
#762 = FACE_BOUND('',#763,.T.);
#763 = EDGE_LOOP('',(#764));
#764 = ORIENTED_EDGE('',*,*,#765,.F.);
#765 = EDGE_CURVE('',#766,#766,#768,.T.);
#766 = VERTEX_POINT('',#767);
#767 = CARTESIAN_POINT('',(25.075,-45.65,1.7));
#768 = CIRCLE('',#769,1.625);
#769 = AXIS2_PLACEMENT_3D('',#770,#771,#772);
#770 = CARTESIAN_POINT('',(26.7,-45.65,1.7));
#771 = DIRECTION('',(0.,0.,-1.));
#772 = DIRECTION('',(-1.,0.,0.));
#773 = PLANE('',#774);
#774 = AXIS2_PLACEMENT_3D('',#775,#776,#777);
#775 = CARTESIAN_POINT('',(26.7,-45.65,1.7));
#776 = DIRECTION('',(0.,0.,-1.));
#777 = DIRECTION('',(-1.,0.,0.));
#778 = ADVANCED_FACE('',(#779,#782),#793,.T.);
#779 = FACE_BOUND('',#780,.T.);
#780 = EDGE_LOOP('',(#781));
#781 = ORIENTED_EDGE('',*,*,#578,.T.);
#782 = FACE_BOUND('',#783,.T.);
#783 = EDGE_LOOP('',(#784));
#784 = ORIENTED_EDGE('',*,*,#785,.F.);
#785 = EDGE_CURVE('',#786,#786,#788,.T.);
#786 = VERTEX_POINT('',#787);
#787 = CARTESIAN_POINT('',(-28.525,-45.65,1.7));
#788 = CIRCLE('',#789,1.625);
#789 = AXIS2_PLACEMENT_3D('',#790,#791,#792);
#790 = CARTESIAN_POINT('',(-26.9,-45.65,1.7));
#791 = DIRECTION('',(0.,0.,-1.));
#792 = DIRECTION('',(-1.,0.,0.));
#793 = PLANE('',#794);
#794 = AXIS2_PLACEMENT_3D('',#795,#796,#797);
#795 = CARTESIAN_POINT('',(-26.9,-45.65,1.7));
#796 = DIRECTION('',(0.,0.,-1.));
#797 = DIRECTION('',(-1.,0.,0.));
#798 = ADVANCED_FACE('',(#799,#802),#813,.T.);
#799 = FACE_BOUND('',#800,.T.);
#800 = EDGE_LOOP('',(#801));
#801 = ORIENTED_EDGE('',*,*,#603,.T.);
#802 = FACE_BOUND('',#803,.T.);
#803 = EDGE_LOOP('',(#804));
#804 = ORIENTED_EDGE('',*,*,#805,.F.);
#805 = EDGE_CURVE('',#806,#806,#808,.T.);
#806 = VERTEX_POINT('',#807);
#807 = CARTESIAN_POINT('',(25.075,45.25,1.7));
#808 = CIRCLE('',#809,1.625);
#809 = AXIS2_PLACEMENT_3D('',#810,#811,#812);
#810 = CARTESIAN_POINT('',(26.7,45.25,1.7));
#811 = DIRECTION('',(0.,0.,-1.));
#812 = DIRECTION('',(-1.,0.,0.));
#813 = PLANE('',#814);
#814 = AXIS2_PLACEMENT_3D('',#815,#816,#817);
#815 = CARTESIAN_POINT('',(26.7,45.25,1.7));
#816 = DIRECTION('',(0.,0.,-1.));
#817 = DIRECTION('',(-1.,0.,0.));
#818 = ADVANCED_FACE('',(#819),#838,.F.);
#819 = FACE_BOUND('',#820,.T.);
#820 = EDGE_LOOP('',(#821,#829,#830,#831));
#821 = ORIENTED_EDGE('',*,*,#822,.F.);
#822 = EDGE_CURVE('',#690,#823,#825,.T.);
#823 = VERTEX_POINT('',#824);
#824 = CARTESIAN_POINT('',(-25.,-45.65,3.5));
#825 = LINE('',#826,#827);
#826 = CARTESIAN_POINT('',(-25.,-45.65,10.));
#827 = VECTOR('',#828,1.);
#828 = DIRECTION('',(-6.832141690001E-17,0.,-1.));
#829 = ORIENTED_EDGE('',*,*,#689,.T.);
#830 = ORIENTED_EDGE('',*,*,#822,.T.);
#831 = ORIENTED_EDGE('',*,*,#832,.F.);
#832 = EDGE_CURVE('',#823,#823,#833,.T.);
#833 = CIRCLE('',#834,1.9);
#834 = AXIS2_PLACEMENT_3D('',#835,#836,#837);
#835 = CARTESIAN_POINT('',(-26.9,-45.65,3.5));
#836 = DIRECTION('',(0.,0.,1.));
#837 = DIRECTION('',(1.,0.,0.));
#838 = CYLINDRICAL_SURFACE('',#839,1.9);
#839 = AXIS2_PLACEMENT_3D('',#840,#841,#842);
#840 = CARTESIAN_POINT('',(-26.9,-45.65,10.));
#841 = DIRECTION('',(-0.,-0.,-1.));
#842 = DIRECTION('',(1.,0.,0.));
#843 = ADVANCED_FACE('',(#844),#863,.F.);
#844 = FACE_BOUND('',#845,.T.);
#845 = EDGE_LOOP('',(#846,#854,#855,#856));
#846 = ORIENTED_EDGE('',*,*,#847,.F.);
#847 = EDGE_CURVE('',#701,#848,#850,.T.);
#848 = VERTEX_POINT('',#849);
#849 = CARTESIAN_POINT('',(28.6,-45.65,3.5));
#850 = LINE('',#851,#852);
#851 = CARTESIAN_POINT('',(28.6,-45.65,10.));
#852 = VECTOR('',#853,1.);
#853 = DIRECTION('',(-6.832141690001E-17,0.,-1.));
#854 = ORIENTED_EDGE('',*,*,#700,.T.);
#855 = ORIENTED_EDGE('',*,*,#847,.T.);
#856 = ORIENTED_EDGE('',*,*,#857,.F.);
#857 = EDGE_CURVE('',#848,#848,#858,.T.);
#858 = CIRCLE('',#859,1.9);
#859 = AXIS2_PLACEMENT_3D('',#860,#861,#862);
#860 = CARTESIAN_POINT('',(26.7,-45.65,3.5));
#861 = DIRECTION('',(0.,0.,1.));
#862 = DIRECTION('',(1.,0.,0.));
#863 = CYLINDRICAL_SURFACE('',#864,1.9);
#864 = AXIS2_PLACEMENT_3D('',#865,#866,#867);
#865 = CARTESIAN_POINT('',(26.7,-45.65,10.));
#866 = DIRECTION('',(-0.,-0.,-1.));
#867 = DIRECTION('',(1.,0.,0.));
#868 = ADVANCED_FACE('',(#869),#894,.F.);
#869 = FACE_BOUND('',#870,.F.);
#870 = EDGE_LOOP('',(#871,#879,#887,#893));
#871 = ORIENTED_EDGE('',*,*,#872,.T.);
#872 = EDGE_CURVE('',#712,#873,#875,.T.);
#873 = VERTEX_POINT('',#874);
#874 = CARTESIAN_POINT('',(-30.1,41.6,7.));
#875 = LINE('',#876,#877);
#876 = CARTESIAN_POINT('',(-30.1,41.6,10.));
#877 = VECTOR('',#878,1.);
#878 = DIRECTION('',(-0.,-0.,-1.));
#879 = ORIENTED_EDGE('',*,*,#880,.T.);
#880 = EDGE_CURVE('',#873,#881,#883,.T.);
#881 = VERTEX_POINT('',#882);
#882 = CARTESIAN_POINT('',(-30.1,-41.6,7.));
#883 = LINE('',#884,#885);
#884 = CARTESIAN_POINT('',(-30.1,41.6,7.));
#885 = VECTOR('',#886,1.);
#886 = DIRECTION('',(0.,-1.,0.));
#887 = ORIENTED_EDGE('',*,*,#888,.F.);
#888 = EDGE_CURVE('',#714,#881,#889,.T.);
#889 = LINE('',#890,#891);
#890 = CARTESIAN_POINT('',(-30.1,-41.6,10.));
#891 = VECTOR('',#892,1.);
#892 = DIRECTION('',(-0.,-0.,-1.));
#893 = ORIENTED_EDGE('',*,*,#711,.F.);
#894 = PLANE('',#895);
#895 = AXIS2_PLACEMENT_3D('',#896,#897,#898);
#896 = CARTESIAN_POINT('',(-30.1,41.6,10.));
#897 = DIRECTION('',(-1.,0.,0.));
#898 = DIRECTION('',(0.,-1.,0.));
#899 = ADVANCED_FACE('',(#900),#918,.F.);
#900 = FACE_BOUND('',#901,.F.);
#901 = EDGE_LOOP('',(#902,#910,#916,#917));
#902 = ORIENTED_EDGE('',*,*,#903,.T.);
#903 = EDGE_CURVE('',#722,#904,#906,.T.);
#904 = VERTEX_POINT('',#905);
#905 = CARTESIAN_POINT('',(30.1,41.6,7.));
#906 = LINE('',#907,#908);
#907 = CARTESIAN_POINT('',(30.1,41.6,10.));
#908 = VECTOR('',#909,1.);
#909 = DIRECTION('',(-0.,-0.,-1.));
#910 = ORIENTED_EDGE('',*,*,#911,.T.);
#911 = EDGE_CURVE('',#904,#873,#912,.T.);
#912 = LINE('',#913,#914);
#913 = CARTESIAN_POINT('',(30.1,41.6,7.));
#914 = VECTOR('',#915,1.);
#915 = DIRECTION('',(-1.,0.,0.));
#916 = ORIENTED_EDGE('',*,*,#872,.F.);
#917 = ORIENTED_EDGE('',*,*,#721,.F.);
#918 = PLANE('',#919);
#919 = AXIS2_PLACEMENT_3D('',#920,#921,#922);
#920 = CARTESIAN_POINT('',(30.1,41.6,10.));
#921 = DIRECTION('',(0.,1.,0.));
#922 = DIRECTION('',(-1.,0.,0.));
#923 = ADVANCED_FACE('',(#924),#942,.F.);
#924 = FACE_BOUND('',#925,.F.);
#925 = EDGE_LOOP('',(#926,#927,#935,#941));
#926 = ORIENTED_EDGE('',*,*,#888,.T.);
#927 = ORIENTED_EDGE('',*,*,#928,.T.);
#928 = EDGE_CURVE('',#881,#929,#931,.T.);
#929 = VERTEX_POINT('',#930);
#930 = CARTESIAN_POINT('',(30.1,-41.6,7.));
#931 = LINE('',#932,#933);
#932 = CARTESIAN_POINT('',(-30.1,-41.6,7.));
#933 = VECTOR('',#934,1.);
#934 = DIRECTION('',(1.,0.,0.));
#935 = ORIENTED_EDGE('',*,*,#936,.F.);
#936 = EDGE_CURVE('',#730,#929,#937,.T.);
#937 = LINE('',#938,#939);
#938 = CARTESIAN_POINT('',(30.1,-41.6,10.));
#939 = VECTOR('',#940,1.);
#940 = DIRECTION('',(-0.,-0.,-1.));
#941 = ORIENTED_EDGE('',*,*,#737,.F.);
#942 = PLANE('',#943);
#943 = AXIS2_PLACEMENT_3D('',#944,#945,#946);
#944 = CARTESIAN_POINT('',(-30.1,-41.6,10.));
#945 = DIRECTION('',(0.,-1.,0.));
#946 = DIRECTION('',(1.,0.,0.));
#947 = ADVANCED_FACE('',(#948),#959,.F.);
#948 = FACE_BOUND('',#949,.F.);
#949 = EDGE_LOOP('',(#950,#951,#957,#958));
#950 = ORIENTED_EDGE('',*,*,#936,.T.);
#951 = ORIENTED_EDGE('',*,*,#952,.T.);
#952 = EDGE_CURVE('',#929,#904,#953,.T.);
#953 = LINE('',#954,#955);
#954 = CARTESIAN_POINT('',(30.1,-41.6,7.));
#955 = VECTOR('',#956,1.);
#956 = DIRECTION('',(0.,1.,0.));
#957 = ORIENTED_EDGE('',*,*,#903,.F.);
#958 = ORIENTED_EDGE('',*,*,#729,.F.);
#959 = PLANE('',#960);
#960 = AXIS2_PLACEMENT_3D('',#961,#962,#963);
#961 = CARTESIAN_POINT('',(30.1,-41.6,10.));
#962 = DIRECTION('',(1.,0.,0.));
#963 = DIRECTION('',(0.,1.,0.));
#964 = ADVANCED_FACE('',(#965),#984,.F.);
#965 = FACE_BOUND('',#966,.T.);
#966 = EDGE_LOOP('',(#967,#975,#976,#977));
#967 = ORIENTED_EDGE('',*,*,#968,.F.);
#968 = EDGE_CURVE('',#746,#969,#971,.T.);
#969 = VERTEX_POINT('',#970);
#970 = CARTESIAN_POINT('',(28.6,45.25,3.5));
#971 = LINE('',#972,#973);
#972 = CARTESIAN_POINT('',(28.6,45.25,10.));
#973 = VECTOR('',#974,1.);
#974 = DIRECTION('',(-6.832141690001E-17,0.,-1.));
#975 = ORIENTED_EDGE('',*,*,#745,.T.);
#976 = ORIENTED_EDGE('',*,*,#968,.T.);
#977 = ORIENTED_EDGE('',*,*,#978,.F.);
#978 = EDGE_CURVE('',#969,#969,#979,.T.);
#979 = CIRCLE('',#980,1.9);
#980 = AXIS2_PLACEMENT_3D('',#981,#982,#983);
#981 = CARTESIAN_POINT('',(26.7,45.25,3.5));
#982 = DIRECTION('',(0.,0.,1.));
#983 = DIRECTION('',(1.,0.,0.));
#984 = CYLINDRICAL_SURFACE('',#985,1.9);
#985 = AXIS2_PLACEMENT_3D('',#986,#987,#988);
#986 = CARTESIAN_POINT('',(26.7,45.25,10.));
#987 = DIRECTION('',(-0.,-0.,-1.));
#988 = DIRECTION('',(1.,0.,0.));
#989 = ADVANCED_FACE('',(#990),#1018,.F.);
#990 = FACE_BOUND('',#991,.T.);
#991 = EDGE_LOOP('',(#992,#1000,#1001,#1002,#1011));
#992 = ORIENTED_EDGE('',*,*,#993,.F.);
#993 = EDGE_CURVE('',#766,#994,#996,.T.);
#994 = VERTEX_POINT('',#995);
#995 = CARTESIAN_POINT('',(25.075,-45.65,3.334763329767));
#996 = LINE('',#997,#998);
#997 = CARTESIAN_POINT('',(25.075,-45.65,1.7));
#998 = VECTOR('',#999,1.);
#999 = DIRECTION('',(1.233581138472E-16,0.,1.));
#1000 = ORIENTED_EDGE('',*,*,#765,.T.);
#1001 = ORIENTED_EDGE('',*,*,#993,.T.);
#1002 = ORIENTED_EDGE('',*,*,#1003,.T.);
#1003 = EDGE_CURVE('',#994,#1004,#1006,.T.);
#1004 = VERTEX_POINT('',#1005);
#1005 = CARTESIAN_POINT('',(28.325,-45.65,3.334763329767));
#1006 = CIRCLE('',#1007,1.625);
#1007 = AXIS2_PLACEMENT_3D('',#1008,#1009,#1010);
#1008 = CARTESIAN_POINT('',(26.7,-45.65,3.334763329767));
#1009 = DIRECTION('',(-0.,0.,1.));
#1010 = DIRECTION('',(0.,-1.,0.));
#1011 = ORIENTED_EDGE('',*,*,#1012,.T.);
#1012 = EDGE_CURVE('',#1004,#994,#1013,.T.);
#1013 = CIRCLE('',#1014,1.625);
#1014 = AXIS2_PLACEMENT_3D('',#1015,#1016,#1017);
#1015 = CARTESIAN_POINT('',(26.7,-45.65,3.334763329767));
#1016 = DIRECTION('',(-0.,0.,1.));
#1017 = DIRECTION('',(0.,-1.,0.));
#1018 = CYLINDRICAL_SURFACE('',#1019,1.625);
#1019 = AXIS2_PLACEMENT_3D('',#1020,#1021,#1022);
#1020 = CARTESIAN_POINT('',(26.7,-45.65,1.7));
#1021 = DIRECTION('',(0.,0.,1.));
#1022 = DIRECTION('',(-1.,0.,0.));
#1023 = ADVANCED_FACE('',(#1024),#1052,.F.);
#1024 = FACE_BOUND('',#1025,.T.);
#1025 = EDGE_LOOP('',(#1026,#1034,#1035,#1036,#1045));
#1026 = ORIENTED_EDGE('',*,*,#1027,.F.);
#1027 = EDGE_CURVE('',#786,#1028,#1030,.T.);
#1028 = VERTEX_POINT('',#1029);
#1029 = CARTESIAN_POINT('',(-28.525,-45.65,3.334763329767));
#1030 = LINE('',#1031,#1032);
#1031 = CARTESIAN_POINT('',(-28.525,-45.65,1.7));
#1032 = VECTOR('',#1033,1.);
#1033 = DIRECTION('',(1.233581138472E-16,0.,1.));
#1034 = ORIENTED_EDGE('',*,*,#785,.T.);
#1035 = ORIENTED_EDGE('',*,*,#1027,.T.);
#1036 = ORIENTED_EDGE('',*,*,#1037,.T.);
#1037 = EDGE_CURVE('',#1028,#1038,#1040,.T.);
#1038 = VERTEX_POINT('',#1039);
#1039 = CARTESIAN_POINT('',(-25.275,-45.65,3.334763329767));
#1040 = CIRCLE('',#1041,1.625);
#1041 = AXIS2_PLACEMENT_3D('',#1042,#1043,#1044);
#1042 = CARTESIAN_POINT('',(-26.9,-45.65,3.334763329767));
#1043 = DIRECTION('',(-0.,0.,1.));
#1044 = DIRECTION('',(0.,-1.,0.));
#1045 = ORIENTED_EDGE('',*,*,#1046,.T.);
#1046 = EDGE_CURVE('',#1038,#1028,#1047,.T.);
#1047 = CIRCLE('',#1048,1.625);
#1048 = AXIS2_PLACEMENT_3D('',#1049,#1050,#1051);
#1049 = CARTESIAN_POINT('',(-26.9,-45.65,3.334763329767));
#1050 = DIRECTION('',(-0.,0.,1.));
#1051 = DIRECTION('',(0.,-1.,0.));
#1052 = CYLINDRICAL_SURFACE('',#1053,1.625);
#1053 = AXIS2_PLACEMENT_3D('',#1054,#1055,#1056);
#1054 = CARTESIAN_POINT('',(-26.9,-45.65,1.7));
#1055 = DIRECTION('',(0.,0.,1.));
#1056 = DIRECTION('',(-1.,0.,0.));
#1057 = ADVANCED_FACE('',(#1058),#1294,.F.);
#1058 = FACE_BOUND('',#1059,.T.);
#1059 = EDGE_LOOP('',(#1060,#1068,#1069,#1070,#1265));
#1060 = ORIENTED_EDGE('',*,*,#1061,.F.);
#1061 = EDGE_CURVE('',#806,#1062,#1064,.T.);
#1062 = VERTEX_POINT('',#1063);
#1063 = CARTESIAN_POINT('',(25.075,45.25,3.334763329767));
#1064 = LINE('',#1065,#1066);
#1065 = CARTESIAN_POINT('',(25.075,45.25,1.7));
#1066 = VECTOR('',#1067,1.);
#1067 = DIRECTION('',(1.233581138472E-16,0.,1.));
#1068 = ORIENTED_EDGE('',*,*,#805,.T.);
#1069 = ORIENTED_EDGE('',*,*,#1061,.T.);
#1070 = ORIENTED_EDGE('',*,*,#1071,.F.);
#1071 = EDGE_CURVE('',#1072,#1062,#1074,.T.);
#1072 = VERTEX_POINT('',#1073);
#1073 = CARTESIAN_POINT('',(28.325,45.25,3.334763329767));
#1074 = B_SPLINE_CURVE_WITH_KNOTS('',5,(#1075,#1076,#1077,#1078,#1079,
    #1080,#1081,#1082,#1083,#1084,#1085,#1086,#1087,#1088,#1089,#1090,
    #1091,#1092,#1093,#1094,#1095,#1096,#1097,#1098,#1099,#1100,#1101,
    #1102,#1103,#1104,#1105,#1106,#1107,#1108,#1109,#1110,#1111,#1112,
    #1113,#1114,#1115,#1116,#1117,#1118,#1119,#1120,#1121,#1122,#1123,
    #1124,#1125,#1126,#1127,#1128,#1129,#1130,#1131,#1132,#1133,#1134,
    #1135,#1136,#1137,#1138,#1139,#1140,#1141,#1142,#1143,#1144,#1145,
    #1146,#1147,#1148,#1149,#1150,#1151,#1152,#1153,#1154,#1155,#1156,
    #1157,#1158,#1159,#1160,#1161,#1162,#1163,#1164,#1165,#1166,#1167,
    #1168,#1169,#1170,#1171,#1172,#1173,#1174,#1175,#1176,#1177,#1178,
    #1179,#1180,#1181,#1182,#1183,#1184,#1185,#1186,#1187,#1188,#1189,
    #1190,#1191,#1192,#1193,#1194,#1195,#1196,#1197,#1198,#1199,#1200,
    #1201,#1202,#1203,#1204,#1205,#1206,#1207,#1208,#1209,#1210,#1211,
    #1212,#1213,#1214,#1215,#1216,#1217,#1218,#1219,#1220,#1221,#1222,
    #1223,#1224,#1225,#1226,#1227,#1228,#1229,#1230,#1231,#1232,#1233,
    #1234,#1235,#1236,#1237,#1238,#1239,#1240,#1241,#1242,#1243,#1244,
    #1245,#1246,#1247,#1248,#1249,#1250,#1251,#1252,#1253,#1254,#1255,
    #1256,#1257,#1258,#1259,#1260,#1261,#1262,#1263,#1264),
  .UNSPECIFIED.,.F.,.F.,(6,4,4,4,4,4,4,4,4,4,4,4,4,4,4,4,4,4,4,4,4,4,4,4
    ,4,4,4,4,4,4,4,4,4,4,4,4,4,4,4,4,4,4,4,4,4,4,4,6),(0.,
    6.532673472843E-02,9.195996006916E-02,0.103015261362,0.184422342967,
    0.213065622863,0.231156115823,0.253266718217,0.264824533204,
    0.273367266024,0.28643262209,0.300000491848,0.313568361606,
    0.328141258747,0.342211642198,0.353769457184,0.365829785864,
    0.380402683005,0.400000717015,0.412563559388,0.425126401761,
    0.439699298902,0.451759627582,0.462814928875,0.476885312325,
    0.489448154698,0.508543675025,0.517086407846,0.541207064911,
    0.561810126279,0.572865427572,0.58643329733,0.595478543845,
    0.612061495745,0.62010171487,0.634674612012,0.646734940692,
    0.656282700901,0.667840515888,0.68341844041,0.69748882386,
    0.713569262072,0.740705001057,0.758292980332,0.773870904854,
    0.787438774612,0.928140615074,1.),.UNSPECIFIED.);
#1075 = CARTESIAN_POINT('',(28.325,45.25,3.334763329767));
#1076 = CARTESIAN_POINT('',(28.325,45.183300403611,3.334763329767));
#1077 = CARTESIAN_POINT('',(28.321577798183,45.116600491223,
    3.334763329767));
#1078 = CARTESIAN_POINT('',(28.314733454217,45.050135405004,
    3.334763329767));
#1079 = CARTESIAN_POINT('',(28.304490928778,44.984137825878,
    3.334763329767));
#1080 = CARTESIAN_POINT('',(28.285356381335,44.892215707934,
    3.334763329767));
#1081 = CARTESIAN_POINT('',(28.279257803365,44.865709358196,
    3.334763329767));
#1082 = CARTESIAN_POINT('',(28.272605585283,44.839334466988,
    3.334763329767));
#1083 = CARTESIAN_POINT('',(28.26540360629,44.813106414671,
    3.334763329767));
#1084 = CARTESIAN_POINT('',(28.254440563093,44.776220571949,
    3.334763329767));
#1085 = CARTESIAN_POINT('',(28.25113079053,44.765428646919,
    3.334763329767));
#1086 = CARTESIAN_POINT('',(28.247727394751,44.754665731962,
    3.334763329767));
#1087 = CARTESIAN_POINT('',(28.244230717846,44.7439329089,3.334763329767
    ));
#1088 = CARTESIAN_POINT('',(28.214208677011,44.654428288196,
    3.334763329767));
#1089 = CARTESIAN_POINT('',(28.182737448459,44.577314454123,
    3.334763329767));
#1090 = CARTESIAN_POINT('',(28.146372703177,44.50232213608,
    3.334763329767));
#1091 = CARTESIAN_POINT('',(28.105311849763,44.429858435175,
    3.334763329767));
#1092 = CARTESIAN_POINT('',(28.043792543353,44.335832682846,
    3.334763329767));
#1093 = CARTESIAN_POINT('',(28.027230105428,44.311720401368,
    3.334763329767));
#1094 = CARTESIAN_POINT('',(28.010127937501,44.287984851812,
    3.334763329767));
#1095 = CARTESIAN_POINT('',(27.992497573984,44.264642042419,
    3.334763329767));
#1096 = CARTESIAN_POINT('',(27.962890445668,44.227222464119,
    3.334763329767));
#1097 = CARTESIAN_POINT('',(27.951223815457,44.212900303246,
    3.334763329767));
#1098 = CARTESIAN_POINT('',(27.93935446496,44.198744879891,
    3.334763329767));
#1099 = CARTESIAN_POINT('',(27.927285588344,44.184760003425,
    3.334763329767));
#1100 = CARTESIAN_POINT('',(27.900029809947,44.15406975689,
    3.334763329767));
#1101 = CARTESIAN_POINT('',(27.884746006121,44.137450442233,
    3.334763329767));
#1102 = CARTESIAN_POINT('',(27.869175107189,44.12109823889,
    3.334763329767));
#1103 = CARTESIAN_POINT('',(27.853323372104,44.105019719871,
    3.334763329767));
#1104 = CARTESIAN_POINT('',(27.828767744167,44.080962944817,
    3.334763329767));
#1105 = CARTESIAN_POINT('',(27.82026323576,44.072781167719,
    3.334763329767));
#1106 = CARTESIAN_POINT('',(27.811684689169,44.064676816924,
    3.334763329767));
#1107 = CARTESIAN_POINT('',(27.80303304682,44.05665078276,3.334763329767
    ));
#1108 = CARTESIAN_POINT('',(27.787861256348,44.042830183953,
    3.334763329767));
#1109 = CARTESIAN_POINT('',(27.781373835833,44.036999691939,
    3.334763329767));
#1110 = CARTESIAN_POINT('',(27.774847392807,44.031212814985,
    3.334763329767));
#1111 = CARTESIAN_POINT('',(27.768282318982,44.025469900416,
    3.334763329767));
#1112 = CARTESIAN_POINT('',(27.751579833417,44.011055768953,
    3.334763329767));
#1113 = CARTESIAN_POINT('',(27.741391221846,44.002443880083,
    3.334763329767));
#1114 = CARTESIAN_POINT('',(27.73111459417,43.993936847539,
    3.334763329767));
#1115 = CARTESIAN_POINT('',(27.720751393049,43.985535865561,
    3.334763329767));
#1116 = CARTESIAN_POINT('',(27.699452920288,43.968629340974,
    3.334763329767));
#1117 = CARTESIAN_POINT('',(27.688510975933,43.960132204146,
    3.334763329767));
#1118 = CARTESIAN_POINT('',(27.677478895674,43.951751992556,
    3.334763329767));
#1119 = CARTESIAN_POINT('',(27.666358349634,43.943489974865,
    3.334763329767));
#1120 = CARTESIAN_POINT('',(27.643943720316,43.927204793416,
    3.334763329767));
#1121 = CARTESIAN_POINT('',(27.632649636841,43.919181629514,
    3.334763329767));
#1122 = CARTESIAN_POINT('',(27.621270481717,43.911279125494,
    3.334763329767));
#1123 = CARTESIAN_POINT('',(27.609807977609,43.903498477697,
    3.334763329767));
#1124 = CARTESIAN_POINT('',(27.585864648878,43.887615981815,
    3.334763329767));
#1125 = CARTESIAN_POINT('',(27.573371287238,43.879533033109,
    3.334763329767));
#1126 = CARTESIAN_POINT('',(27.560785953967,43.871593436549,
    3.334763329767));
#1127 = CARTESIAN_POINT('',(27.548110847008,43.863798578732,
    3.334763329767));
#1128 = CARTESIAN_POINT('',(27.523025636496,43.848764764275,
    3.334763329767));
#1129 = CARTESIAN_POINT('',(27.510621466101,43.841515907029,
    3.334763329767));
#1130 = CARTESIAN_POINT('',(27.498137691729,43.834404426929,
    3.334763329767));
#1131 = CARTESIAN_POINT('',(27.48557634584,43.827431481782,
    3.334763329767));
#1132 = CARTESIAN_POINT('',(27.462559209144,43.814985118818,
    3.334763329767));
#1133 = CARTESIAN_POINT('',(27.452127979344,43.809466279757,
    3.334763329767));
#1134 = CARTESIAN_POINT('',(27.441646937692,43.804042284061,
    3.334763329767));
#1135 = CARTESIAN_POINT('',(27.431117235616,43.798713727603,
    3.334763329767));
#1136 = CARTESIAN_POINT('',(27.409502956841,43.788021141255,
    3.334763329767));
#1137 = CARTESIAN_POINT('',(27.398414159963,43.782665641871,
    3.334763329767));
#1138 = CARTESIAN_POINT('',(27.387274965278,43.77741534047,
    3.334763329767));
#1139 = CARTESIAN_POINT('',(27.376086705233,43.77227086508,
    3.334763329767));
#1140 = CARTESIAN_POINT('',(27.351273913741,43.761145178864,
    3.334763329767));
#1141 = CARTESIAN_POINT('',(27.337627427062,43.755212932566,
    3.334763329767));
#1142 = CARTESIAN_POINT('',(27.323913636069,43.749437143123,
    3.334763329767));
#1143 = CARTESIAN_POINT('',(27.310134935783,43.74381881924,
    3.334763329767));
#1144 = CARTESIAN_POINT('',(27.277679728283,43.731016284702,
    3.334763329767));
#1145 = CARTESIAN_POINT('',(27.258952692111,43.72396016547,
    3.334763329767));
#1146 = CARTESIAN_POINT('',(27.240118518211,43.717192877471,
    3.334763329767));
#1147 = CARTESIAN_POINT('',(27.22118315479,43.710716557949,
    3.334763329767));
#1148 = CARTESIAN_POINT('',(27.189953552384,43.700569445022,
    3.334763329767));
#1149 = CARTESIAN_POINT('',(27.177715379593,43.696726094853,
    3.334763329767));
#1150 = CARTESIAN_POINT('',(27.165439681247,43.693003625107,
    3.334763329767));
#1151 = CARTESIAN_POINT('',(27.153128050644,43.689402518932,
    3.334763329767));
#1152 = CARTESIAN_POINT('',(27.128436130585,43.682443937142,
    3.334763329767));
#1153 = CARTESIAN_POINT('',(27.116055840969,43.67908646148,
    3.334763329767));
#1154 = CARTESIAN_POINT('',(27.103642824599,43.675851252753,
    3.334763329767));
#1155 = CARTESIAN_POINT('',(27.091198692596,43.672738730868,
    3.334763329767));
#1156 = CARTESIAN_POINT('',(27.06425565563,43.666281525498,
    3.334763329767));
#1157 = CARTESIAN_POINT('',(27.049746556492,43.662979376652,
    3.334763329767));
#1158 = CARTESIAN_POINT('',(27.03520029482,43.659843443222,
    3.334763329767));
#1159 = CARTESIAN_POINT('',(27.020619411023,43.65687427288,
    3.334763329767));
#1160 = CARTESIAN_POINT('',(26.993912979708,43.65175352666,
    3.334763329767));
#1161 = CARTESIAN_POINT('',(26.981797537039,43.649549249274,
    3.334763329767));
#1162 = CARTESIAN_POINT('',(26.969661576982,43.647459800417,
    3.334763329767));
#1163 = CARTESIAN_POINT('',(26.957506551214,43.645485430024,
    3.334763329767));
#1164 = CARTESIAN_POINT('',(26.934175667338,43.641922213492,
    3.334763329767));
#1165 = CARTESIAN_POINT('',(26.923002621725,43.640314951222,
    3.334763329767));
#1166 = CARTESIAN_POINT('',(26.911815901094,43.638804745042,
    3.334763329767));
#1167 = CARTESIAN_POINT('',(26.900616629863,43.637391746748,
    3.334763329767));
#1168 = CARTESIAN_POINT('',(26.875137778115,43.63440161462,
    3.334763329767));
#1169 = CARTESIAN_POINT('',(26.860851116671,43.632884815568,
    3.334763329767));
#1170 = CARTESIAN_POINT('',(26.846548274485,43.631525964156,
    3.334763329767));
#1171 = CARTESIAN_POINT('',(26.832231580173,43.630325281616,
    3.334763329767));
#1172 = CARTESIAN_POINT('',(26.805110319978,43.628352273511,
    3.334763329767));
#1173 = CARTESIAN_POINT('',(26.792308089942,43.627547835885,
    3.334763329767));
#1174 = CARTESIAN_POINT('',(26.779498338011,43.626869745657,
    3.334763329767));
#1175 = CARTESIAN_POINT('',(26.766682726799,43.626318090838,
    3.334763329767));
#1176 = CARTESIAN_POINT('',(26.734376815396,43.625246677031,
    3.334763329767));
#1177 = CARTESIAN_POINT('',(26.714881017299,43.624892671316,
    3.334763329767));
#1178 = CARTESIAN_POINT('',(26.695381372493,43.624831103332,
    3.334763329767));
#1179 = CARTESIAN_POINT('',(26.675883727658,43.625061991538,
    3.334763329767));
#1180 = CARTESIAN_POINT('',(26.647674809997,43.62581923656,
    3.334763329767));
#1181 = CARTESIAN_POINT('',(26.638957260344,43.626111794453,
    3.334763329767));
#1182 = CARTESIAN_POINT('',(26.63024180445,43.626462838635,
    3.334763329767));
#1183 = CARTESIAN_POINT('',(26.621528965411,43.626872348037,
    3.334763329767));
#1184 = CARTESIAN_POINT('',(26.58822717401,43.628661555353,
    3.334763329767));
#1185 = CARTESIAN_POINT('',(26.563660110145,43.630448695708,
    3.334763329767));
#1186 = CARTESIAN_POINT('',(26.539129849177,43.632701082863,
    3.334763329767));
#1187 = CARTESIAN_POINT('',(26.51464812501,43.635417639401,
    3.334763329767));
#1188 = CARTESIAN_POINT('',(26.469366604226,43.641312413245,
    3.334763329767));
#1189 = CARTESIAN_POINT('',(26.448550518938,43.644365531355,
    3.334763329767));
#1190 = CARTESIAN_POINT('',(26.427785660788,43.647755249048,
    3.334763329767));
#1191 = CARTESIAN_POINT('',(26.407079277412,43.651480383197,
    3.334763329767));
#1192 = CARTESIAN_POINT('',(26.37536308092,43.657717587422,
    3.334763329767));
#1193 = CARTESIAN_POINT('',(26.364306495387,43.659991825016,
    3.334763329767));
#1194 = CARTESIAN_POINT('',(26.353269935018,43.662362009905,
    3.334763329767));
#1195 = CARTESIAN_POINT('',(26.342254509139,43.664827903853,
    3.334763329767));
#1196 = CARTESIAN_POINT('',(26.317769685336,43.670532718846,
    3.334763329767));
#1197 = CARTESIAN_POINT('',(26.304311544917,43.673819957354,
    3.334763329767));
#1198 = CARTESIAN_POINT('',(26.290888944768,43.677250488855,
    3.334763329767));
#1199 = CARTESIAN_POINT('',(26.277503916907,43.680823794006,
    3.334763329767));
#1200 = CARTESIAN_POINT('',(26.255261525859,43.687016320931,
    3.334763329767));
#1201 = CARTESIAN_POINT('',(26.246382166361,43.689556536611,
    3.334763329767));
#1202 = CARTESIAN_POINT('',(26.237521002526,43.692159790504,
    3.334763329767));
#1203 = CARTESIAN_POINT('',(26.2286786306,43.694825907442,3.334763329767
    ));
#1204 = CARTESIAN_POINT('',(26.203680169582,43.702557497075,
    3.334763329767));
#1205 = CARTESIAN_POINT('',(26.187569851837,43.707770962933,
    3.334763329767));
#1206 = CARTESIAN_POINT('',(26.171528350594,43.713193969528,
    3.334763329767));
#1207 = CARTESIAN_POINT('',(26.155559293395,43.718825290532,
    3.334763329767));
#1208 = CARTESIAN_POINT('',(26.131960570326,43.727494303103,
    3.334763329767));
#1209 = CARTESIAN_POINT('',(26.124272739987,43.730373660768,
    3.334763329767));
#1210 = CARTESIAN_POINT('',(26.116603194542,43.733301527596,
    3.334763329767));
#1211 = CARTESIAN_POINT('',(26.108952341751,43.736277747925,
    3.334763329767));
#1212 = CARTESIAN_POINT('',(26.087488032682,43.744783909523,
    3.334763329767));
#1213 = CARTESIAN_POINT('',(26.073718219153,43.750423978689,
    3.334763329767));
#1214 = CARTESIAN_POINT('',(26.060013563425,43.756221410747,
    3.334763329767));
#1215 = CARTESIAN_POINT('',(26.046376458924,43.762175193213,
    3.334763329767));
#1216 = CARTESIAN_POINT('',(26.021581262352,43.773340037249,
    3.334763329767));
#1217 = CARTESIAN_POINT('',(26.010401137776,43.778502169013,
    3.334763329767));
#1218 = CARTESIAN_POINT('',(25.999270245566,43.783770049197,
    3.334763329767));
#1219 = CARTESIAN_POINT('',(25.988189917174,43.78914304767,
    3.334763329767));
#1220 = CARTESIAN_POINT('',(25.968430619776,43.798956832688,
    3.334763329767));
#1221 = CARTESIAN_POINT('',(25.959732284538,43.803358627021,
    3.334763329767));
#1222 = CARTESIAN_POINT('',(25.951067121063,43.807825566924,
    3.334763329767));
#1223 = CARTESIAN_POINT('',(25.942435778992,43.812357317504,
    3.334763329767));
#1224 = CARTESIAN_POINT('',(25.923432158251,43.822517375299,
    3.334763329767));
#1225 = CARTESIAN_POINT('',(25.913075919093,43.82817568337,
    3.334763329767));
#1226 = CARTESIAN_POINT('',(25.902771328984,43.833927846972,
    3.334763329767));
#1227 = CARTESIAN_POINT('',(25.892519519967,43.839773234182,
    3.334763329767));
#1228 = CARTESIAN_POINT('',(25.868576607075,43.853714527667,
    3.334763329767));
#1229 = CARTESIAN_POINT('',(25.854929520897,43.861886030959,
    3.334763329767));
#1230 = CARTESIAN_POINT('',(25.841383098109,43.870224104615,
    3.334763329767));
#1231 = CARTESIAN_POINT('',(25.827940042023,43.878727084697,
    3.334763329767));
#1232 = CARTESIAN_POINT('',(25.802556668441,43.895220737239,
    3.334763329767));
#1233 = CARTESIAN_POINT('',(25.790596821846,43.903181355557,
    3.334763329767));
#1234 = CARTESIAN_POINT('',(25.778725437323,43.911273821269,
    3.334763329767));
#1235 = CARTESIAN_POINT('',(25.76694444763,43.919496816855,
    3.334763329767));
#1236 = CARTESIAN_POINT('',(25.741897252155,43.937394313754,
    3.334763329767));
#1237 = CARTESIAN_POINT('',(25.728659300618,43.947108357071,
    3.334763329767));
#1238 = CARTESIAN_POINT('',(25.715544743536,43.956989081442,
    3.334763329767));
#1239 = CARTESIAN_POINT('',(25.702556369578,43.967034385838,
    3.334763329767));
#1240 = CARTESIAN_POINT('',(25.667996584032,43.99446761406,
    3.334763329767));
#1241 = CARTESIAN_POINT('',(25.646663366267,44.012155616054,
    3.334763329767));
#1242 = CARTESIAN_POINT('',(25.625710413002,44.030295664475,
    3.334763329767));
#1243 = CARTESIAN_POINT('',(25.605150408046,44.048876778299,
    3.334763329767));
#1244 = CARTESIAN_POINT('',(25.571932243979,44.080209158403,
    3.334763329767));
#1245 = CARTESIAN_POINT('',(25.559039127127,44.092711332034,
    3.334763329767));
#1246 = CARTESIAN_POINT('',(25.546319541104,44.105390820764,
    3.334763329767));
#1247 = CARTESIAN_POINT('',(25.533776721395,44.118244399308,
    3.334763329767));
#1248 = CARTESIAN_POINT('',(25.510463810991,44.142804609119,
    3.334763329767));
#1249 = CARTESIAN_POINT('',(25.499654946866,44.154474437033,
    3.334763329767));
#1250 = CARTESIAN_POINT('',(25.488989408032,44.166275933718,
    3.334763329767));
#1251 = CARTESIAN_POINT('',(25.478469322893,44.178206744079,
    3.334763329767));
#1252 = CARTESIAN_POINT('',(25.459062596467,44.200766343373,
    3.334763329767));
#1253 = CARTESIAN_POINT('',(25.450140340331,44.211364495382,
    3.334763329767));
#1254 = CARTESIAN_POINT('',(25.441331361887,44.222057326621,
    3.334763329767));
#1255 = CARTESIAN_POINT('',(25.432636994708,44.232843218327,
    3.334763329767));
#1256 = CARTESIAN_POINT('',(25.335098023961,44.356520606004,
    3.334763329767));
#1257 = CARTESIAN_POINT('',(25.258597671968,44.479159135045,
    3.334763329767));
#1258 = CARTESIAN_POINT('',(25.196021332319,44.609777790529,
    3.334763329767));
#1259 = CARTESIAN_POINT('',(25.148389457878,44.746246531263,
    3.334763329767));
#1260 = CARTESIAN_POINT('',(25.099809858291,44.957767902787,
    3.334763329767));
#1261 = CARTESIAN_POINT('',(25.087422512793,45.030203138756,
    3.334763329767));
#1262 = CARTESIAN_POINT('',(25.079140872836,45.103260426776,
    3.334763329767));
#1263 = CARTESIAN_POINT('',(25.075,45.176630467737,3.334763329767));
#1264 = CARTESIAN_POINT('',(25.075,45.25,3.334763329767));
#1265 = ORIENTED_EDGE('',*,*,#1266,.F.);
#1266 = EDGE_CURVE('',#1062,#1072,#1267,.T.);
#1267 = B_SPLINE_CURVE_WITH_KNOTS('',7,(#1268,#1269,#1270,#1271,#1272,
    #1273,#1274,#1275,#1276,#1277,#1278,#1279,#1280,#1281,#1282,#1283,
    #1284,#1285,#1286,#1287,#1288,#1289,#1290,#1291,#1292,#1293),
  .UNSPECIFIED.,.F.,.F.,(8,6,6,6,8),(0.,0.258286462087,0.505524308058,
    0.752762154029,1.),.UNSPECIFIED.);
#1268 = CARTESIAN_POINT('',(25.075,45.25,3.334763329767));
#1269 = CARTESIAN_POINT('',(25.075,45.438342671708,3.334763329767));
#1270 = CARTESIAN_POINT('',(25.100467971161,45.626778185499,
    3.334763329767));
#1271 = CARTESIAN_POINT('',(25.151447585362,45.811003098497,
    3.334763329767));
#1272 = CARTESIAN_POINT('',(25.22701291423,45.986918381379,
    3.334763329767));
#1273 = CARTESIAN_POINT('',(25.325531922618,46.150723124598,
    3.334763329767));
#1274 = CARTESIAN_POINT('',(25.444667963465,46.298922718105,
    3.334763329767));
#1275 = CARTESIAN_POINT('',(25.71202622547,46.552703091148,
    3.334763329767));
#1276 = CARTESIAN_POINT('',(25.858903894854,46.659947509506,
    3.334763329767));
#1277 = CARTESIAN_POINT('',(26.019196657544,46.747704494888,
    3.334763329767));
#1278 = CARTESIAN_POINT('',(26.189763433568,46.814055814663,
    3.334763329767));
#1279 = CARTESIAN_POINT('',(26.367221852594,46.857685710038,
    3.334763329767));
#1280 = CARTESIAN_POINT('',(26.547960283651,46.877885575677,
    3.334763329767));
#1281 = CARTESIAN_POINT('',(26.908475039256,46.871624395738,
    3.334763329767));
#1282 = CARTESIAN_POINT('',(27.088403048961,46.845160715793,
    3.334763329767));
#1283 = CARTESIAN_POINT('',(27.264239435827,46.795395031752,
    3.334763329767));
#1284 = CARTESIAN_POINT('',(27.432399352681,46.723160932586,
    3.334763329767));
#1285 = CARTESIAN_POINT('',(27.589548157652,46.629890833679,
    3.334763329767));
#1286 = CARTESIAN_POINT('',(27.732613274128,46.517610882306,
    3.334763329767));
#1287 = CARTESIAN_POINT('',(27.985350789382,46.260445877364,
    3.334763329767));
#1288 = CARTESIAN_POINT('',(28.095129526467,46.115452622637,
    3.334763329767));
#1289 = CARTESIAN_POINT('',(28.185656718126,45.956707903591,
    3.334763329767));
#1290 = CARTESIAN_POINT('',(28.254959876987,45.787319017031,
    3.334763329768));
#1291 = CARTESIAN_POINT('',(28.301664708759,45.61064497552,
    3.334763329767));
#1292 = CARTESIAN_POINT('',(28.325,45.430284560753,3.334763329767));
#1293 = CARTESIAN_POINT('',(28.325,45.25,3.334763329767));
#1294 = CYLINDRICAL_SURFACE('',#1295,1.625);
#1295 = AXIS2_PLACEMENT_3D('',#1296,#1297,#1298);
#1296 = CARTESIAN_POINT('',(26.7,45.25,1.7));
#1297 = DIRECTION('',(0.,0.,1.));
#1298 = DIRECTION('',(-1.,0.,0.));
#1299 = ADVANCED_FACE('',(#1300),#1312,.F.);
#1300 = FACE_BOUND('',#1301,.T.);
#1301 = EDGE_LOOP('',(#1302,#1308,#1309,#1310,#1311));
#1302 = ORIENTED_EDGE('',*,*,#1303,.F.);
#1303 = EDGE_CURVE('',#823,#1038,#1304,.T.);
#1304 = LINE('',#1305,#1306);
#1305 = CARTESIAN_POINT('',(-25.,-45.65,3.5));
#1306 = VECTOR('',#1307,1.);
#1307 = DIRECTION('',(-0.857167300702,-0.,-0.51503807491));
#1308 = ORIENTED_EDGE('',*,*,#832,.T.);
#1309 = ORIENTED_EDGE('',*,*,#1303,.T.);
#1310 = ORIENTED_EDGE('',*,*,#1037,.F.);
#1311 = ORIENTED_EDGE('',*,*,#1046,.F.);
#1312 = CONICAL_SURFACE('',#1313,1.9,1.029744258677);
#1313 = AXIS2_PLACEMENT_3D('',#1314,#1315,#1316);
#1314 = CARTESIAN_POINT('',(-26.9,-45.65,3.5));
#1315 = DIRECTION('',(0.,0.,1.));
#1316 = DIRECTION('',(1.,0.,0.));
#1317 = ADVANCED_FACE('',(#1318),#1330,.F.);
#1318 = FACE_BOUND('',#1319,.T.);
#1319 = EDGE_LOOP('',(#1320,#1326,#1327,#1328,#1329));
#1320 = ORIENTED_EDGE('',*,*,#1321,.F.);
#1321 = EDGE_CURVE('',#848,#1004,#1322,.T.);
#1322 = LINE('',#1323,#1324);
#1323 = CARTESIAN_POINT('',(28.6,-45.65,3.5));
#1324 = VECTOR('',#1325,1.);
#1325 = DIRECTION('',(-0.857167300702,-0.,-0.51503807491));
#1326 = ORIENTED_EDGE('',*,*,#857,.T.);
#1327 = ORIENTED_EDGE('',*,*,#1321,.T.);
#1328 = ORIENTED_EDGE('',*,*,#1003,.F.);
#1329 = ORIENTED_EDGE('',*,*,#1012,.F.);
#1330 = CONICAL_SURFACE('',#1331,1.9,1.029744258677);
#1331 = AXIS2_PLACEMENT_3D('',#1332,#1333,#1334);
#1332 = CARTESIAN_POINT('',(26.7,-45.65,3.5));
#1333 = DIRECTION('',(0.,0.,1.));
#1334 = DIRECTION('',(1.,0.,0.));
#1335 = ADVANCED_FACE('',(#1336),#1342,.T.);
#1336 = FACE_BOUND('',#1337,.T.);
#1337 = EDGE_LOOP('',(#1338,#1339,#1340,#1341));
#1338 = ORIENTED_EDGE('',*,*,#880,.T.);
#1339 = ORIENTED_EDGE('',*,*,#928,.T.);
#1340 = ORIENTED_EDGE('',*,*,#952,.T.);
#1341 = ORIENTED_EDGE('',*,*,#911,.T.);
#1342 = PLANE('',#1343);
#1343 = AXIS2_PLACEMENT_3D('',#1344,#1345,#1346);
#1344 = CARTESIAN_POINT('',(0.,1.585590484262E-15,7.));
#1345 = DIRECTION('',(0.,0.,1.));
#1346 = DIRECTION('',(1.,0.,0.));
#1347 = ADVANCED_FACE('',(#1348),#1360,.F.);
#1348 = FACE_BOUND('',#1349,.T.);
#1349 = EDGE_LOOP('',(#1350,#1356,#1357,#1358,#1359));
#1350 = ORIENTED_EDGE('',*,*,#1351,.F.);
#1351 = EDGE_CURVE('',#969,#1072,#1352,.T.);
#1352 = LINE('',#1353,#1354);
#1353 = CARTESIAN_POINT('',(28.6,45.25,3.5));
#1354 = VECTOR('',#1355,1.);
#1355 = DIRECTION('',(-0.857167300702,-0.,-0.51503807491));
#1356 = ORIENTED_EDGE('',*,*,#978,.T.);
#1357 = ORIENTED_EDGE('',*,*,#1351,.T.);
#1358 = ORIENTED_EDGE('',*,*,#1071,.T.);
#1359 = ORIENTED_EDGE('',*,*,#1266,.T.);
#1360 = CONICAL_SURFACE('',#1361,1.9,1.029744258677);
#1361 = AXIS2_PLACEMENT_3D('',#1362,#1363,#1364);
#1362 = CARTESIAN_POINT('',(26.7,45.25,3.5));
#1363 = DIRECTION('',(0.,0.,1.));
#1364 = DIRECTION('',(1.,0.,0.));
#1365 = ( GEOMETRIC_REPRESENTATION_CONTEXT(3) 
GLOBAL_UNCERTAINTY_ASSIGNED_CONTEXT((#1369)) 
GLOBAL_UNIT_ASSIGNED_CONTEXT((#1366,#1367,#1368)) REPRESENTATION_CONTEXT
('Context #1','3D Context with UNIT and UNCERTAINTY') );
#1366 = ( LENGTH_UNIT() NAMED_UNIT(*) SI_UNIT(.MILLI.,.METRE.) );
#1367 = ( NAMED_UNIT(*) PLANE_ANGLE_UNIT() SI_UNIT($,.RADIAN.) );
#1368 = ( NAMED_UNIT(*) SI_UNIT($,.STERADIAN.) SOLID_ANGLE_UNIT() );
#1369 = UNCERTAINTY_MEASURE_WITH_UNIT(LENGTH_MEASURE(1.E-07),#1366,
  'distance_accuracy_value','confusion accuracy');
#1370 = PRODUCT_RELATED_PRODUCT_CATEGORY('part',$,(#7));
#1371 = MECHANICAL_DESIGN_GEOMETRIC_PRESENTATION_REPRESENTATION('',(
    #1372),#1365);
#1372 = STYLED_ITEM('color',(#1373),#15);
#1373 = PRESENTATION_STYLE_ASSIGNMENT((#1374,#1380));
#1374 = SURFACE_STYLE_USAGE(.BOTH.,#1375);
#1375 = SURFACE_SIDE_STYLE('',(#1376));
#1376 = SURFACE_STYLE_FILL_AREA(#1377);
#1377 = FILL_AREA_STYLE('',(#1378));
#1378 = FILL_AREA_STYLE_COLOUR('',#1379);
#1379 = COLOUR_RGB('',0.678431390124,0.709803936702,0.741176476869);
#1380 = CURVE_STYLE('',#1381,POSITIVE_LENGTH_MEASURE(0.1),#1382);
#1381 = DRAUGHTING_PRE_DEFINED_CURVE_FONT('continuous');
#1382 = COLOUR_RGB('',9.803921802644E-02,9.803921802644E-02,
  9.803921802644E-02);
ENDSEC;
END-ISO-10303-21;
